G04 (created by PCBNEW (2013-07-07 BZR 4022)-stable) date 9/14/2013 7:52:16 PM*
%MOIN*%
G04 Gerber Fmt 3.4, Leading zero omitted, Abs format*
%FSLAX34Y34*%
G01*
G70*
G90*
G04 APERTURE LIST*
%ADD10C,0.00590551*%
%ADD11R,0.192913X0.212598*%
%ADD12R,0.045X0.025*%
%ADD13R,0.025X0.045*%
%ADD14R,0.06X0.06*%
%ADD15C,0.06*%
%ADD16R,0.11811X0.165354*%
%ADD17R,0.0700787X0.0165354*%
%ADD18R,0.114173X0.0944882*%
%ADD19C,0.027*%
%ADD20C,0.015*%
%ADD21C,0.01*%
%ADD22C,0.035*%
%ADD23C,0.008*%
G04 APERTURE END LIST*
G54D10*
G54D11*
X57046Y-39850D03*
X61653Y-39850D03*
G54D12*
X65800Y-41500D03*
X65800Y-42100D03*
X49650Y-41750D03*
X49650Y-42350D03*
X50450Y-41750D03*
X50450Y-42350D03*
X49650Y-40550D03*
X49650Y-41150D03*
X53750Y-44250D03*
X53750Y-44850D03*
X52850Y-44250D03*
X52850Y-44850D03*
G54D13*
X54950Y-39450D03*
X55550Y-39450D03*
G54D12*
X65100Y-41500D03*
X65100Y-42100D03*
X50450Y-40550D03*
X50450Y-41150D03*
G54D13*
X58750Y-45950D03*
X58150Y-45950D03*
X59950Y-45150D03*
X59350Y-45150D03*
X53750Y-39450D03*
X54350Y-39450D03*
G54D12*
X54550Y-46050D03*
X54550Y-45450D03*
G54D13*
X55850Y-45950D03*
X56450Y-45950D03*
X59950Y-45950D03*
X59350Y-45950D03*
G54D12*
X66500Y-41500D03*
X66500Y-42100D03*
G54D14*
X48650Y-38350D03*
G54D15*
X48650Y-39350D03*
X48650Y-40350D03*
X48650Y-41350D03*
X48650Y-42350D03*
X48650Y-43350D03*
X48650Y-44350D03*
X48650Y-45350D03*
G54D14*
X67450Y-38350D03*
G54D15*
X67450Y-39350D03*
X67450Y-40350D03*
X67450Y-41350D03*
X67450Y-42350D03*
X67450Y-43350D03*
X67450Y-44350D03*
X67450Y-45350D03*
G54D16*
X56950Y-43950D03*
G54D17*
X55780Y-42798D03*
X55780Y-43054D03*
X55780Y-43310D03*
X55780Y-43566D03*
X55780Y-43822D03*
X55780Y-44077D03*
X55780Y-44333D03*
X55780Y-44589D03*
X55780Y-44845D03*
X55780Y-45101D03*
X58119Y-45101D03*
X58119Y-44845D03*
X58119Y-44589D03*
X58119Y-44333D03*
X58119Y-44077D03*
X58119Y-43822D03*
X58119Y-43566D03*
X58119Y-43310D03*
X58119Y-43054D03*
X58119Y-42798D03*
G54D18*
X63650Y-41849D03*
X63650Y-44250D03*
X51250Y-43549D03*
X51250Y-45950D03*
G54D13*
X53650Y-45950D03*
X53050Y-45950D03*
G54D19*
X58950Y-44350D03*
X50450Y-41750D03*
X59950Y-45950D03*
X66475Y-41475D03*
X54575Y-45450D03*
X49650Y-42950D03*
X51000Y-46250D03*
X51250Y-45950D03*
X51550Y-45650D03*
X52850Y-44850D03*
X53050Y-45950D03*
X63250Y-44500D03*
X63650Y-44250D03*
X64000Y-44000D03*
X65800Y-42100D03*
X65100Y-42100D03*
X66500Y-42100D03*
X55850Y-45950D03*
X59525Y-43900D03*
X55050Y-44750D03*
X55050Y-46000D03*
X54350Y-44300D03*
X53750Y-40050D03*
X50450Y-41175D03*
X59600Y-44550D03*
G54D20*
X49650Y-41750D02*
X50450Y-41750D01*
G54D21*
X58933Y-44333D02*
X58119Y-44333D01*
X58950Y-44350D02*
X58933Y-44333D01*
G54D22*
X49650Y-41150D02*
X49650Y-41750D01*
G54D23*
X58789Y-44589D02*
X58119Y-44589D01*
G54D20*
X59350Y-45150D02*
X59350Y-45950D01*
G54D22*
X58750Y-45950D02*
X59350Y-45950D01*
G54D23*
X59350Y-45150D02*
X58789Y-44589D01*
X59950Y-45150D02*
X59950Y-45950D01*
G54D21*
X66475Y-41475D02*
X66500Y-41500D01*
G54D23*
X49650Y-42350D02*
X49650Y-42950D01*
X54575Y-45450D02*
X54550Y-45450D01*
G54D20*
X49650Y-42350D02*
X50450Y-42350D01*
G54D21*
X51250Y-46000D02*
X51250Y-45950D01*
X51000Y-46250D02*
X51250Y-46000D01*
X51250Y-45950D02*
X51250Y-45950D01*
X51550Y-45650D02*
X51250Y-45950D01*
X63499Y-44250D02*
X63650Y-44250D01*
X63250Y-44500D02*
X63499Y-44250D01*
X63749Y-44250D02*
X63650Y-44250D01*
X64000Y-44000D02*
X63749Y-44250D01*
X54950Y-39450D02*
X54350Y-39450D01*
X58119Y-43822D02*
X59447Y-43822D01*
X59525Y-43900D02*
X59447Y-43822D01*
G54D23*
X54950Y-46050D02*
X55000Y-46050D01*
X55050Y-44750D02*
X55210Y-44589D01*
X55780Y-44589D02*
X55210Y-44589D01*
X54950Y-46050D02*
X54550Y-46050D01*
X55000Y-46050D02*
X55050Y-46000D01*
G54D21*
X53750Y-39450D02*
X53750Y-40050D01*
X54572Y-44077D02*
X55780Y-44077D01*
X54350Y-44300D02*
X54572Y-44077D01*
X58119Y-44077D02*
X59127Y-44077D01*
X50450Y-41175D02*
X50450Y-41150D01*
X59127Y-44077D02*
X59600Y-44550D01*
G54D10*
G36*
X67890Y-41600D02*
X67822Y-41600D01*
X67822Y-41599D01*
X67889Y-41437D01*
X67890Y-41262D01*
X67890Y-40262D01*
X67823Y-40101D01*
X67699Y-39977D01*
X67537Y-39910D01*
X67362Y-39909D01*
X67201Y-39976D01*
X67077Y-40100D01*
X67010Y-40262D01*
X67009Y-40437D01*
X67076Y-40598D01*
X67200Y-40722D01*
X67362Y-40789D01*
X67537Y-40790D01*
X67698Y-40723D01*
X67822Y-40599D01*
X67889Y-40437D01*
X67890Y-40262D01*
X67890Y-41262D01*
X67823Y-41101D01*
X67699Y-40977D01*
X67537Y-40910D01*
X67362Y-40909D01*
X67201Y-40976D01*
X67077Y-41100D01*
X67010Y-41262D01*
X67009Y-41437D01*
X67076Y-41598D01*
X67077Y-41600D01*
X64829Y-41600D01*
X64300Y-42129D01*
X64300Y-42300D01*
X62070Y-42300D01*
X60700Y-40929D01*
X60700Y-38650D01*
X60700Y-38170D01*
X61861Y-37009D01*
X67890Y-37009D01*
X67890Y-41600D01*
X67890Y-41600D01*
G37*
G54D21*
X67890Y-41600D02*
X67822Y-41600D01*
X67822Y-41599D01*
X67889Y-41437D01*
X67890Y-41262D01*
X67890Y-40262D01*
X67823Y-40101D01*
X67699Y-39977D01*
X67537Y-39910D01*
X67362Y-39909D01*
X67201Y-39976D01*
X67077Y-40100D01*
X67010Y-40262D01*
X67009Y-40437D01*
X67076Y-40598D01*
X67200Y-40722D01*
X67362Y-40789D01*
X67537Y-40790D01*
X67698Y-40723D01*
X67822Y-40599D01*
X67889Y-40437D01*
X67890Y-40262D01*
X67890Y-41262D01*
X67823Y-41101D01*
X67699Y-40977D01*
X67537Y-40910D01*
X67362Y-40909D01*
X67201Y-40976D01*
X67077Y-41100D01*
X67010Y-41262D01*
X67009Y-41437D01*
X67076Y-41598D01*
X67077Y-41600D01*
X64829Y-41600D01*
X64300Y-42129D01*
X64300Y-42300D01*
X62070Y-42300D01*
X60700Y-40929D01*
X60700Y-38650D01*
X60700Y-38170D01*
X61861Y-37009D01*
X67890Y-37009D01*
X67890Y-41600D01*
G54D10*
G36*
X67890Y-46690D02*
X67890Y-46690D01*
X67890Y-43262D01*
X67823Y-43101D01*
X67699Y-42977D01*
X67537Y-42910D01*
X67362Y-42909D01*
X67201Y-42976D01*
X67077Y-43100D01*
X67010Y-43262D01*
X67009Y-43437D01*
X67076Y-43598D01*
X67200Y-43722D01*
X67362Y-43789D01*
X67537Y-43790D01*
X67698Y-43723D01*
X67822Y-43599D01*
X67889Y-43437D01*
X67890Y-43262D01*
X67890Y-46690D01*
X48209Y-46690D01*
X48209Y-43700D01*
X48377Y-43700D01*
X48400Y-43722D01*
X48562Y-43789D01*
X48737Y-43790D01*
X48898Y-43723D01*
X48922Y-43700D01*
X50129Y-43700D01*
X50300Y-43870D01*
X50300Y-44120D01*
X50879Y-44700D01*
X54000Y-44700D01*
X54000Y-45000D01*
X53729Y-45000D01*
X53200Y-45529D01*
X53200Y-46270D01*
X53329Y-46400D01*
X60220Y-46400D01*
X60400Y-46220D01*
X60400Y-44329D01*
X59670Y-43600D01*
X58499Y-43600D01*
X58497Y-43599D01*
X58441Y-43599D01*
X57750Y-43599D01*
X57750Y-43276D01*
X57796Y-43277D01*
X58497Y-43277D01*
X58548Y-43255D01*
X58554Y-43250D01*
X58570Y-43250D01*
X59270Y-42550D01*
X64395Y-42550D01*
X64900Y-42045D01*
X64900Y-42000D01*
X67177Y-42000D01*
X67077Y-42100D01*
X67010Y-42262D01*
X67009Y-42437D01*
X67076Y-42598D01*
X67200Y-42722D01*
X67362Y-42789D01*
X67537Y-42790D01*
X67698Y-42723D01*
X67822Y-42599D01*
X67889Y-42437D01*
X67890Y-42262D01*
X67823Y-42101D01*
X67722Y-42000D01*
X67890Y-42000D01*
X67890Y-46690D01*
X67890Y-46690D01*
G37*
G54D21*
X67890Y-46690D02*
X67890Y-46690D01*
X67890Y-43262D01*
X67823Y-43101D01*
X67699Y-42977D01*
X67537Y-42910D01*
X67362Y-42909D01*
X67201Y-42976D01*
X67077Y-43100D01*
X67010Y-43262D01*
X67009Y-43437D01*
X67076Y-43598D01*
X67200Y-43722D01*
X67362Y-43789D01*
X67537Y-43790D01*
X67698Y-43723D01*
X67822Y-43599D01*
X67889Y-43437D01*
X67890Y-43262D01*
X67890Y-46690D01*
X48209Y-46690D01*
X48209Y-43700D01*
X48377Y-43700D01*
X48400Y-43722D01*
X48562Y-43789D01*
X48737Y-43790D01*
X48898Y-43723D01*
X48922Y-43700D01*
X50129Y-43700D01*
X50300Y-43870D01*
X50300Y-44120D01*
X50879Y-44700D01*
X54000Y-44700D01*
X54000Y-45000D01*
X53729Y-45000D01*
X53200Y-45529D01*
X53200Y-46270D01*
X53329Y-46400D01*
X60220Y-46400D01*
X60400Y-46220D01*
X60400Y-44329D01*
X59670Y-43600D01*
X58499Y-43600D01*
X58497Y-43599D01*
X58441Y-43599D01*
X57750Y-43599D01*
X57750Y-43276D01*
X57796Y-43277D01*
X58497Y-43277D01*
X58548Y-43255D01*
X58554Y-43250D01*
X58570Y-43250D01*
X59270Y-42550D01*
X64395Y-42550D01*
X64900Y-42045D01*
X64900Y-42000D01*
X67177Y-42000D01*
X67077Y-42100D01*
X67010Y-42262D01*
X67009Y-42437D01*
X67076Y-42598D01*
X67200Y-42722D01*
X67362Y-42789D01*
X67537Y-42790D01*
X67698Y-42723D01*
X67822Y-42599D01*
X67889Y-42437D01*
X67890Y-42262D01*
X67823Y-42101D01*
X67722Y-42000D01*
X67890Y-42000D01*
X67890Y-46690D01*
G54D10*
G36*
X58450Y-45479D02*
X58300Y-45629D01*
X58300Y-46200D01*
X56271Y-46200D01*
X56271Y-45156D01*
X56271Y-44991D01*
X56263Y-44973D01*
X56271Y-44956D01*
X56271Y-44900D01*
X56271Y-44735D01*
X56263Y-44717D01*
X56271Y-44700D01*
X56271Y-44644D01*
X56271Y-44479D01*
X56249Y-44427D01*
X56210Y-44388D01*
X56159Y-44367D01*
X56103Y-44367D01*
X55402Y-44367D01*
X55351Y-44388D01*
X55329Y-44409D01*
X55210Y-44409D01*
X55141Y-44423D01*
X55121Y-44436D01*
X55082Y-44462D01*
X55070Y-44475D01*
X54995Y-44474D01*
X54894Y-44516D01*
X54817Y-44594D01*
X54775Y-44695D01*
X54774Y-44804D01*
X54816Y-44905D01*
X54894Y-44982D01*
X54995Y-45024D01*
X55104Y-45025D01*
X55205Y-44983D01*
X55282Y-44905D01*
X55290Y-44888D01*
X55290Y-44956D01*
X55297Y-44973D01*
X55290Y-44990D01*
X55290Y-45046D01*
X55290Y-45211D01*
X55311Y-45263D01*
X55350Y-45302D01*
X55402Y-45324D01*
X55458Y-45324D01*
X56158Y-45324D01*
X56210Y-45303D01*
X56249Y-45263D01*
X56271Y-45212D01*
X56271Y-45156D01*
X56271Y-46200D01*
X56270Y-46200D01*
X56250Y-46179D01*
X56250Y-45629D01*
X56170Y-45550D01*
X55579Y-45550D01*
X55529Y-45600D01*
X54329Y-45600D01*
X54100Y-45829D01*
X54100Y-46150D01*
X53800Y-46150D01*
X53500Y-46150D01*
X53500Y-45670D01*
X53635Y-45535D01*
X53920Y-45250D01*
X54070Y-45250D01*
X54250Y-45070D01*
X54250Y-44920D01*
X54585Y-44585D01*
X54870Y-44300D01*
X55100Y-44300D01*
X55350Y-44300D01*
X55400Y-44300D01*
X55402Y-44300D01*
X55458Y-44300D01*
X56158Y-44300D01*
X56160Y-44300D01*
X56220Y-44300D01*
X56350Y-44170D01*
X56350Y-43100D01*
X57550Y-43100D01*
X57550Y-44870D01*
X57628Y-44949D01*
X57628Y-44956D01*
X57650Y-45007D01*
X57689Y-45046D01*
X57740Y-45068D01*
X57796Y-45068D01*
X58450Y-45068D01*
X58450Y-45479D01*
X58450Y-45479D01*
G37*
G54D21*
X58450Y-45479D02*
X58300Y-45629D01*
X58300Y-46200D01*
X56271Y-46200D01*
X56271Y-45156D01*
X56271Y-44991D01*
X56263Y-44973D01*
X56271Y-44956D01*
X56271Y-44900D01*
X56271Y-44735D01*
X56263Y-44717D01*
X56271Y-44700D01*
X56271Y-44644D01*
X56271Y-44479D01*
X56249Y-44427D01*
X56210Y-44388D01*
X56159Y-44367D01*
X56103Y-44367D01*
X55402Y-44367D01*
X55351Y-44388D01*
X55329Y-44409D01*
X55210Y-44409D01*
X55141Y-44423D01*
X55121Y-44436D01*
X55082Y-44462D01*
X55070Y-44475D01*
X54995Y-44474D01*
X54894Y-44516D01*
X54817Y-44594D01*
X54775Y-44695D01*
X54774Y-44804D01*
X54816Y-44905D01*
X54894Y-44982D01*
X54995Y-45024D01*
X55104Y-45025D01*
X55205Y-44983D01*
X55282Y-44905D01*
X55290Y-44888D01*
X55290Y-44956D01*
X55297Y-44973D01*
X55290Y-44990D01*
X55290Y-45046D01*
X55290Y-45211D01*
X55311Y-45263D01*
X55350Y-45302D01*
X55402Y-45324D01*
X55458Y-45324D01*
X56158Y-45324D01*
X56210Y-45303D01*
X56249Y-45263D01*
X56271Y-45212D01*
X56271Y-45156D01*
X56271Y-46200D01*
X56270Y-46200D01*
X56250Y-46179D01*
X56250Y-45629D01*
X56170Y-45550D01*
X55579Y-45550D01*
X55529Y-45600D01*
X54329Y-45600D01*
X54100Y-45829D01*
X54100Y-46150D01*
X53800Y-46150D01*
X53500Y-46150D01*
X53500Y-45670D01*
X53635Y-45535D01*
X53920Y-45250D01*
X54070Y-45250D01*
X54250Y-45070D01*
X54250Y-44920D01*
X54585Y-44585D01*
X54870Y-44300D01*
X55100Y-44300D01*
X55350Y-44300D01*
X55400Y-44300D01*
X55402Y-44300D01*
X55458Y-44300D01*
X56158Y-44300D01*
X56160Y-44300D01*
X56220Y-44300D01*
X56350Y-44170D01*
X56350Y-43100D01*
X57550Y-43100D01*
X57550Y-44870D01*
X57628Y-44949D01*
X57628Y-44956D01*
X57650Y-45007D01*
X57689Y-45046D01*
X57740Y-45068D01*
X57796Y-45068D01*
X58450Y-45068D01*
X58450Y-45479D01*
G54D10*
G36*
X56150Y-43850D02*
X54404Y-43850D01*
X54075Y-44179D01*
X54075Y-44299D01*
X54074Y-44354D01*
X54029Y-44400D01*
X52270Y-44400D01*
X51870Y-44000D01*
X50700Y-44000D01*
X50700Y-42970D01*
X50900Y-42770D01*
X50900Y-40800D01*
X49090Y-40800D01*
X49090Y-40262D01*
X49023Y-40101D01*
X48899Y-39977D01*
X48737Y-39910D01*
X48562Y-39909D01*
X48401Y-39976D01*
X48277Y-40100D01*
X48210Y-40262D01*
X48209Y-40437D01*
X48276Y-40598D01*
X48400Y-40722D01*
X48562Y-40789D01*
X48737Y-40790D01*
X48898Y-40723D01*
X49022Y-40599D01*
X49089Y-40437D01*
X49090Y-40262D01*
X49090Y-40800D01*
X48209Y-40800D01*
X48209Y-37009D01*
X52938Y-37009D01*
X52964Y-37035D01*
X53250Y-37320D01*
X53250Y-39995D01*
X53421Y-40167D01*
X53535Y-40224D01*
X53586Y-40275D01*
X53354Y-40275D01*
X53479Y-40400D01*
X53675Y-40400D01*
X54000Y-40400D01*
X54000Y-43045D01*
X54504Y-43550D01*
X56150Y-43550D01*
X56150Y-43850D01*
X56150Y-43850D01*
G37*
G54D21*
X56150Y-43850D02*
X54404Y-43850D01*
X54075Y-44179D01*
X54075Y-44299D01*
X54074Y-44354D01*
X54029Y-44400D01*
X52270Y-44400D01*
X51870Y-44000D01*
X50700Y-44000D01*
X50700Y-42970D01*
X50900Y-42770D01*
X50900Y-40800D01*
X49090Y-40800D01*
X49090Y-40262D01*
X49023Y-40101D01*
X48899Y-39977D01*
X48737Y-39910D01*
X48562Y-39909D01*
X48401Y-39976D01*
X48277Y-40100D01*
X48210Y-40262D01*
X48209Y-40437D01*
X48276Y-40598D01*
X48400Y-40722D01*
X48562Y-40789D01*
X48737Y-40790D01*
X48898Y-40723D01*
X49022Y-40599D01*
X49089Y-40437D01*
X49090Y-40262D01*
X49090Y-40800D01*
X48209Y-40800D01*
X48209Y-37009D01*
X52938Y-37009D01*
X52964Y-37035D01*
X53250Y-37320D01*
X53250Y-39995D01*
X53421Y-40167D01*
X53535Y-40224D01*
X53586Y-40275D01*
X53354Y-40275D01*
X53479Y-40400D01*
X53675Y-40400D01*
X54000Y-40400D01*
X54000Y-43045D01*
X54504Y-43550D01*
X56150Y-43550D01*
X56150Y-43850D01*
G54D10*
G36*
X58050Y-40979D02*
X56464Y-42564D01*
X56454Y-42575D01*
X56100Y-42575D01*
X56100Y-42575D01*
X55402Y-42575D01*
X55351Y-42596D01*
X55311Y-42636D01*
X55290Y-42687D01*
X55290Y-42743D01*
X55290Y-42908D01*
X55311Y-42960D01*
X55350Y-42999D01*
X55402Y-43021D01*
X55458Y-43021D01*
X56100Y-43021D01*
X56100Y-43343D01*
X55402Y-43343D01*
X55386Y-43350D01*
X54595Y-43350D01*
X54250Y-43004D01*
X54250Y-40370D01*
X54570Y-40050D01*
X55050Y-40050D01*
X55120Y-40050D01*
X55400Y-39770D01*
X55400Y-38825D01*
X55400Y-38700D01*
X55400Y-38695D01*
X55895Y-38200D01*
X57550Y-38200D01*
X57554Y-38200D01*
X58050Y-38695D01*
X58050Y-38700D01*
X58050Y-40979D01*
X58050Y-40979D01*
G37*
G54D21*
X58050Y-40979D02*
X56464Y-42564D01*
X56454Y-42575D01*
X56100Y-42575D01*
X56100Y-42575D01*
X55402Y-42575D01*
X55351Y-42596D01*
X55311Y-42636D01*
X55290Y-42687D01*
X55290Y-42743D01*
X55290Y-42908D01*
X55311Y-42960D01*
X55350Y-42999D01*
X55402Y-43021D01*
X55458Y-43021D01*
X56100Y-43021D01*
X56100Y-43343D01*
X55402Y-43343D01*
X55386Y-43350D01*
X54595Y-43350D01*
X54250Y-43004D01*
X54250Y-40370D01*
X54570Y-40050D01*
X55050Y-40050D01*
X55120Y-40050D01*
X55400Y-39770D01*
X55400Y-38825D01*
X55400Y-38700D01*
X55400Y-38695D01*
X55895Y-38200D01*
X57550Y-38200D01*
X57554Y-38200D01*
X58050Y-38695D01*
X58050Y-38700D01*
X58050Y-40979D01*
M02*
