M48
INCH,TZ
T1C0.013
T2C0.040
%
G90
G05
T1
X49650Y-42950
X50450Y-41175
X50450Y-41750
X51000Y-46250
X51250Y-45951
X51550Y-45650
X52850Y-44850
X53050Y-45950
X53750Y-40050
X54350Y-44300
X54575Y-45450
X55050Y-44750
X55050Y-46000
X55850Y-45950
X58950Y-44350
X59525Y-43900
X59600Y-44550
X59950Y-45950
X63250Y-44500
X63650Y-44251
X64000Y-44000
X65100Y-42100
X65800Y-42100
X66475Y-41475
X66500Y-42100
T2
X48650Y-38350
X48650Y-39350
X48650Y-40350
X48650Y-41350
X48650Y-42350
X48650Y-43350
X48650Y-44350
X48650Y-45350
X67450Y-38350
X67450Y-39350
X67450Y-40350
X67450Y-41350
X67450Y-42350
X67450Y-43350
X67450Y-44350
X67450Y-45350
T0
M30
