G04 (created by PCBNEW (2013-07-07 BZR 4022)-stable) date 9/14/2013 7:52:16 PM*
%MOIN*%
G04 Gerber Fmt 3.4, Leading zero omitted, Abs format*
%FSLAX34Y34*%
G01*
G70*
G90*
G04 APERTURE LIST*
%ADD10C,0.00590551*%
%ADD11R,0.06X0.06*%
%ADD12C,0.06*%
%ADD13C,0.027*%
%ADD14C,0.01*%
%ADD15C,0.008*%
G04 APERTURE END LIST*
G54D10*
G54D11*
X48650Y-38350D03*
G54D12*
X48650Y-39350D03*
X48650Y-40350D03*
X48650Y-41350D03*
X48650Y-42350D03*
X48650Y-43350D03*
X48650Y-44350D03*
X48650Y-45350D03*
G54D11*
X67450Y-38350D03*
G54D12*
X67450Y-39350D03*
X67450Y-40350D03*
X67450Y-41350D03*
X67450Y-42350D03*
X67450Y-43350D03*
X67450Y-44350D03*
X67450Y-45350D03*
G54D13*
X58950Y-44350D03*
X50450Y-41750D03*
X59950Y-45950D03*
X66475Y-41475D03*
X54575Y-45450D03*
X49650Y-42950D03*
X51000Y-46250D03*
X51250Y-45950D03*
X51550Y-45650D03*
X52850Y-44850D03*
X53050Y-45950D03*
X63250Y-44500D03*
X63650Y-44250D03*
X64000Y-44000D03*
X65800Y-42100D03*
X65100Y-42100D03*
X66500Y-42100D03*
X55850Y-45950D03*
X59525Y-43900D03*
X55050Y-44750D03*
X55050Y-46000D03*
X54350Y-44300D03*
X53750Y-40050D03*
X50450Y-41175D03*
X59600Y-44550D03*
G54D14*
X50450Y-41750D02*
X53700Y-45000D01*
X53700Y-45000D02*
X54325Y-45000D01*
X54325Y-45000D02*
X54975Y-44350D01*
X54975Y-44350D02*
X58950Y-44350D01*
X65750Y-40750D02*
X66475Y-41475D01*
X63250Y-40750D02*
X65750Y-40750D01*
X62350Y-41650D02*
X63250Y-40750D01*
X62350Y-43550D02*
X62350Y-41650D01*
X59950Y-45950D02*
X62350Y-43550D01*
G54D15*
X52150Y-45450D02*
X54575Y-45450D01*
X49650Y-42950D02*
X52150Y-45450D01*
G54D14*
X51550Y-45650D02*
X51550Y-45700D01*
X51550Y-45700D02*
X51000Y-46250D01*
X51250Y-45950D02*
X51250Y-45950D01*
X51250Y-45950D02*
X51550Y-45650D01*
X51500Y-45750D02*
X51000Y-46250D01*
X51250Y-45950D02*
X51250Y-46000D01*
X53050Y-45950D02*
X53000Y-46000D01*
X63250Y-44000D02*
X63250Y-44500D01*
X64000Y-44000D02*
X63250Y-44000D01*
X63650Y-44250D02*
X63650Y-44275D01*
X66500Y-42100D02*
X66525Y-42125D01*
X60275Y-44650D02*
X59525Y-43900D01*
X60275Y-45075D02*
X60275Y-44650D01*
X59800Y-45550D02*
X60275Y-45075D01*
X56250Y-45550D02*
X59800Y-45550D01*
X56250Y-45550D02*
X55850Y-45950D01*
G54D15*
X55050Y-45750D02*
X55050Y-44750D01*
X55050Y-46000D02*
X55050Y-45750D01*
G54D14*
X54350Y-40650D02*
X54350Y-44300D01*
X53750Y-40050D02*
X54350Y-40650D01*
X54000Y-44725D02*
X50450Y-41175D01*
X54300Y-44725D02*
X54000Y-44725D01*
X54950Y-44075D02*
X54300Y-44725D01*
X59125Y-44075D02*
X54950Y-44075D01*
X59600Y-44550D02*
X59125Y-44075D01*
G54D10*
G36*
X67890Y-46690D02*
X67890Y-46690D01*
X67890Y-43262D01*
X67890Y-42262D01*
X67890Y-41262D01*
X67890Y-40262D01*
X67890Y-39262D01*
X67890Y-39262D01*
X67890Y-38622D01*
X67890Y-38022D01*
X67868Y-37970D01*
X67829Y-37931D01*
X67777Y-37910D01*
X67722Y-37909D01*
X67122Y-37909D01*
X67070Y-37931D01*
X67031Y-37970D01*
X67010Y-38022D01*
X67009Y-38077D01*
X67009Y-38677D01*
X67031Y-38729D01*
X67070Y-38768D01*
X67122Y-38789D01*
X67177Y-38790D01*
X67777Y-38790D01*
X67829Y-38768D01*
X67868Y-38729D01*
X67889Y-38677D01*
X67890Y-38622D01*
X67890Y-39262D01*
X67823Y-39101D01*
X67699Y-38977D01*
X67537Y-38910D01*
X67362Y-38909D01*
X67201Y-38976D01*
X67077Y-39100D01*
X67010Y-39262D01*
X67009Y-39437D01*
X67076Y-39598D01*
X67200Y-39722D01*
X67362Y-39789D01*
X67537Y-39790D01*
X67698Y-39723D01*
X67822Y-39599D01*
X67889Y-39437D01*
X67890Y-39262D01*
X67890Y-40262D01*
X67823Y-40101D01*
X67699Y-39977D01*
X67537Y-39910D01*
X67362Y-39909D01*
X67201Y-39976D01*
X67077Y-40100D01*
X67010Y-40262D01*
X67009Y-40437D01*
X67076Y-40598D01*
X67200Y-40722D01*
X67362Y-40789D01*
X67537Y-40790D01*
X67698Y-40723D01*
X67822Y-40599D01*
X67889Y-40437D01*
X67890Y-40262D01*
X67890Y-41262D01*
X67823Y-41101D01*
X67699Y-40977D01*
X67537Y-40910D01*
X67362Y-40909D01*
X67201Y-40976D01*
X67077Y-41100D01*
X67010Y-41262D01*
X67009Y-41437D01*
X67076Y-41598D01*
X67200Y-41722D01*
X67362Y-41789D01*
X67537Y-41790D01*
X67698Y-41723D01*
X67822Y-41599D01*
X67889Y-41437D01*
X67890Y-41262D01*
X67890Y-42262D01*
X67823Y-42101D01*
X67699Y-41977D01*
X67537Y-41910D01*
X67362Y-41909D01*
X67201Y-41976D01*
X67077Y-42100D01*
X67010Y-42262D01*
X67009Y-42437D01*
X67076Y-42598D01*
X67200Y-42722D01*
X67362Y-42789D01*
X67537Y-42790D01*
X67698Y-42723D01*
X67822Y-42599D01*
X67889Y-42437D01*
X67890Y-42262D01*
X67890Y-43262D01*
X67823Y-43101D01*
X67699Y-42977D01*
X67537Y-42910D01*
X67362Y-42909D01*
X67201Y-42976D01*
X67077Y-43100D01*
X67010Y-43262D01*
X67009Y-43437D01*
X67076Y-43598D01*
X67200Y-43722D01*
X67362Y-43789D01*
X67537Y-43790D01*
X67698Y-43723D01*
X67822Y-43599D01*
X67889Y-43437D01*
X67890Y-43262D01*
X67890Y-46690D01*
X66750Y-46690D01*
X66750Y-41420D01*
X66708Y-41319D01*
X66630Y-41242D01*
X66529Y-41200D01*
X66468Y-41199D01*
X65884Y-40615D01*
X65822Y-40574D01*
X65750Y-40560D01*
X63250Y-40560D01*
X63177Y-40574D01*
X63115Y-40615D01*
X62215Y-41515D01*
X62174Y-41577D01*
X62160Y-41650D01*
X62160Y-43471D01*
X59956Y-45675D01*
X59943Y-45674D01*
X60409Y-45209D01*
X60409Y-45209D01*
X60409Y-45209D01*
X60450Y-45147D01*
X60465Y-45075D01*
X60465Y-44650D01*
X60464Y-44649D01*
X60465Y-44649D01*
X60462Y-44637D01*
X60450Y-44577D01*
X60409Y-44515D01*
X60409Y-44515D01*
X59799Y-43906D01*
X59800Y-43845D01*
X59758Y-43744D01*
X59680Y-43667D01*
X59579Y-43625D01*
X59470Y-43624D01*
X59369Y-43666D01*
X59292Y-43744D01*
X59250Y-43845D01*
X59249Y-43934D01*
X59197Y-43899D01*
X59125Y-43885D01*
X54950Y-43885D01*
X54877Y-43899D01*
X54815Y-43940D01*
X54815Y-43940D01*
X54591Y-44164D01*
X54583Y-44144D01*
X54540Y-44101D01*
X54540Y-40650D01*
X54525Y-40577D01*
X54484Y-40515D01*
X54484Y-40515D01*
X54024Y-40056D01*
X54025Y-39995D01*
X53983Y-39894D01*
X53905Y-39817D01*
X53804Y-39775D01*
X53695Y-39774D01*
X53594Y-39816D01*
X53517Y-39894D01*
X53475Y-39995D01*
X53474Y-40104D01*
X53516Y-40205D01*
X53594Y-40282D01*
X53695Y-40324D01*
X53756Y-40325D01*
X54160Y-40728D01*
X54160Y-44101D01*
X54117Y-44144D01*
X54075Y-44245D01*
X54074Y-44354D01*
X54116Y-44455D01*
X54194Y-44532D01*
X54198Y-44535D01*
X54078Y-44535D01*
X50724Y-41181D01*
X50725Y-41120D01*
X50683Y-41019D01*
X50605Y-40942D01*
X50504Y-40900D01*
X50395Y-40899D01*
X50294Y-40941D01*
X50217Y-41019D01*
X50175Y-41120D01*
X50174Y-41229D01*
X50216Y-41330D01*
X50294Y-41407D01*
X50395Y-41449D01*
X50456Y-41450D01*
X50481Y-41475D01*
X50395Y-41474D01*
X50294Y-41516D01*
X50217Y-41594D01*
X50175Y-41695D01*
X50174Y-41804D01*
X50216Y-41905D01*
X50294Y-41982D01*
X50395Y-42024D01*
X50456Y-42025D01*
X53565Y-45134D01*
X53565Y-45134D01*
X53627Y-45175D01*
X53627Y-45175D01*
X53685Y-45187D01*
X53699Y-45190D01*
X53699Y-45189D01*
X53700Y-45190D01*
X54325Y-45190D01*
X54397Y-45175D01*
X54459Y-45134D01*
X54779Y-44814D01*
X54816Y-44905D01*
X54870Y-44958D01*
X54870Y-45750D01*
X54870Y-45791D01*
X54850Y-45811D01*
X54850Y-45395D01*
X54808Y-45294D01*
X54730Y-45217D01*
X54629Y-45175D01*
X54520Y-45174D01*
X54419Y-45216D01*
X54366Y-45270D01*
X52224Y-45270D01*
X49924Y-42970D01*
X49925Y-42895D01*
X49883Y-42794D01*
X49805Y-42717D01*
X49704Y-42675D01*
X49595Y-42674D01*
X49494Y-42716D01*
X49417Y-42794D01*
X49375Y-42895D01*
X49374Y-43004D01*
X49416Y-43105D01*
X49494Y-43182D01*
X49595Y-43224D01*
X49670Y-43225D01*
X52022Y-45577D01*
X52081Y-45616D01*
X52150Y-45630D01*
X54366Y-45630D01*
X54419Y-45682D01*
X54520Y-45724D01*
X54629Y-45725D01*
X54730Y-45683D01*
X54807Y-45605D01*
X54849Y-45504D01*
X54850Y-45395D01*
X54850Y-45811D01*
X54817Y-45844D01*
X54775Y-45945D01*
X54774Y-46054D01*
X54816Y-46155D01*
X54894Y-46232D01*
X54995Y-46274D01*
X55104Y-46275D01*
X55205Y-46233D01*
X55282Y-46155D01*
X55324Y-46054D01*
X55325Y-45945D01*
X55283Y-45844D01*
X55230Y-45791D01*
X55230Y-45750D01*
X55230Y-44958D01*
X55282Y-44905D01*
X55324Y-44804D01*
X55325Y-44695D01*
X55283Y-44594D01*
X55228Y-44540D01*
X58751Y-44540D01*
X58794Y-44582D01*
X58895Y-44624D01*
X59004Y-44625D01*
X59105Y-44583D01*
X59182Y-44505D01*
X59213Y-44432D01*
X59325Y-44543D01*
X59324Y-44604D01*
X59366Y-44705D01*
X59444Y-44782D01*
X59545Y-44824D01*
X59654Y-44825D01*
X59755Y-44783D01*
X59832Y-44705D01*
X59874Y-44604D01*
X59875Y-44518D01*
X60085Y-44728D01*
X60085Y-44996D01*
X59721Y-45360D01*
X56250Y-45360D01*
X56249Y-45360D01*
X56235Y-45362D01*
X56177Y-45374D01*
X56115Y-45415D01*
X56115Y-45415D01*
X55856Y-45675D01*
X55795Y-45674D01*
X55694Y-45716D01*
X55617Y-45794D01*
X55575Y-45895D01*
X55574Y-46004D01*
X55616Y-46105D01*
X55694Y-46182D01*
X55795Y-46224D01*
X55904Y-46225D01*
X56005Y-46183D01*
X56082Y-46105D01*
X56124Y-46004D01*
X56125Y-45943D01*
X56328Y-45740D01*
X59771Y-45740D01*
X59717Y-45794D01*
X59675Y-45895D01*
X59674Y-46004D01*
X59716Y-46105D01*
X59794Y-46182D01*
X59895Y-46224D01*
X60004Y-46225D01*
X60105Y-46183D01*
X60182Y-46105D01*
X60224Y-46004D01*
X60225Y-45943D01*
X62484Y-43684D01*
X62484Y-43684D01*
X62484Y-43684D01*
X62525Y-43622D01*
X62525Y-43622D01*
X62537Y-43562D01*
X62540Y-43550D01*
X62539Y-43550D01*
X62540Y-43550D01*
X62540Y-41728D01*
X63328Y-40940D01*
X65671Y-40940D01*
X66200Y-41468D01*
X66199Y-41529D01*
X66241Y-41630D01*
X66319Y-41707D01*
X66420Y-41749D01*
X66529Y-41750D01*
X66630Y-41708D01*
X66707Y-41630D01*
X66749Y-41529D01*
X66750Y-41420D01*
X66750Y-46690D01*
X49090Y-46690D01*
X49090Y-43262D01*
X49090Y-42262D01*
X49090Y-41262D01*
X49090Y-40262D01*
X49090Y-39262D01*
X49090Y-39262D01*
X49090Y-38622D01*
X49090Y-38022D01*
X49068Y-37970D01*
X49029Y-37931D01*
X48977Y-37910D01*
X48922Y-37909D01*
X48322Y-37909D01*
X48270Y-37931D01*
X48231Y-37970D01*
X48210Y-38022D01*
X48209Y-38077D01*
X48209Y-38677D01*
X48231Y-38729D01*
X48270Y-38768D01*
X48322Y-38789D01*
X48377Y-38790D01*
X48977Y-38790D01*
X49029Y-38768D01*
X49068Y-38729D01*
X49089Y-38677D01*
X49090Y-38622D01*
X49090Y-39262D01*
X49023Y-39101D01*
X48899Y-38977D01*
X48737Y-38910D01*
X48562Y-38909D01*
X48401Y-38976D01*
X48277Y-39100D01*
X48210Y-39262D01*
X48209Y-39437D01*
X48276Y-39598D01*
X48400Y-39722D01*
X48562Y-39789D01*
X48737Y-39790D01*
X48898Y-39723D01*
X49022Y-39599D01*
X49089Y-39437D01*
X49090Y-39262D01*
X49090Y-40262D01*
X49023Y-40101D01*
X48899Y-39977D01*
X48737Y-39910D01*
X48562Y-39909D01*
X48401Y-39976D01*
X48277Y-40100D01*
X48210Y-40262D01*
X48209Y-40437D01*
X48276Y-40598D01*
X48400Y-40722D01*
X48562Y-40789D01*
X48737Y-40790D01*
X48898Y-40723D01*
X49022Y-40599D01*
X49089Y-40437D01*
X49090Y-40262D01*
X49090Y-41262D01*
X49023Y-41101D01*
X48899Y-40977D01*
X48737Y-40910D01*
X48562Y-40909D01*
X48401Y-40976D01*
X48277Y-41100D01*
X48210Y-41262D01*
X48209Y-41437D01*
X48276Y-41598D01*
X48400Y-41722D01*
X48562Y-41789D01*
X48737Y-41790D01*
X48898Y-41723D01*
X49022Y-41599D01*
X49089Y-41437D01*
X49090Y-41262D01*
X49090Y-42262D01*
X49023Y-42101D01*
X48899Y-41977D01*
X48737Y-41910D01*
X48562Y-41909D01*
X48401Y-41976D01*
X48277Y-42100D01*
X48210Y-42262D01*
X48209Y-42437D01*
X48276Y-42598D01*
X48400Y-42722D01*
X48562Y-42789D01*
X48737Y-42790D01*
X48898Y-42723D01*
X49022Y-42599D01*
X49089Y-42437D01*
X49090Y-42262D01*
X49090Y-43262D01*
X49023Y-43101D01*
X48899Y-42977D01*
X48737Y-42910D01*
X48562Y-42909D01*
X48401Y-42976D01*
X48277Y-43100D01*
X48210Y-43262D01*
X48209Y-43437D01*
X48276Y-43598D01*
X48400Y-43722D01*
X48562Y-43789D01*
X48737Y-43790D01*
X48898Y-43723D01*
X49022Y-43599D01*
X49089Y-43437D01*
X49090Y-43262D01*
X49090Y-46690D01*
X48209Y-46690D01*
X48209Y-37009D01*
X67890Y-37009D01*
X67890Y-46690D01*
X67890Y-46690D01*
G37*
G54D14*
X67890Y-46690D02*
X67890Y-46690D01*
X67890Y-43262D01*
X67890Y-42262D01*
X67890Y-41262D01*
X67890Y-40262D01*
X67890Y-39262D01*
X67890Y-39262D01*
X67890Y-38622D01*
X67890Y-38022D01*
X67868Y-37970D01*
X67829Y-37931D01*
X67777Y-37910D01*
X67722Y-37909D01*
X67122Y-37909D01*
X67070Y-37931D01*
X67031Y-37970D01*
X67010Y-38022D01*
X67009Y-38077D01*
X67009Y-38677D01*
X67031Y-38729D01*
X67070Y-38768D01*
X67122Y-38789D01*
X67177Y-38790D01*
X67777Y-38790D01*
X67829Y-38768D01*
X67868Y-38729D01*
X67889Y-38677D01*
X67890Y-38622D01*
X67890Y-39262D01*
X67823Y-39101D01*
X67699Y-38977D01*
X67537Y-38910D01*
X67362Y-38909D01*
X67201Y-38976D01*
X67077Y-39100D01*
X67010Y-39262D01*
X67009Y-39437D01*
X67076Y-39598D01*
X67200Y-39722D01*
X67362Y-39789D01*
X67537Y-39790D01*
X67698Y-39723D01*
X67822Y-39599D01*
X67889Y-39437D01*
X67890Y-39262D01*
X67890Y-40262D01*
X67823Y-40101D01*
X67699Y-39977D01*
X67537Y-39910D01*
X67362Y-39909D01*
X67201Y-39976D01*
X67077Y-40100D01*
X67010Y-40262D01*
X67009Y-40437D01*
X67076Y-40598D01*
X67200Y-40722D01*
X67362Y-40789D01*
X67537Y-40790D01*
X67698Y-40723D01*
X67822Y-40599D01*
X67889Y-40437D01*
X67890Y-40262D01*
X67890Y-41262D01*
X67823Y-41101D01*
X67699Y-40977D01*
X67537Y-40910D01*
X67362Y-40909D01*
X67201Y-40976D01*
X67077Y-41100D01*
X67010Y-41262D01*
X67009Y-41437D01*
X67076Y-41598D01*
X67200Y-41722D01*
X67362Y-41789D01*
X67537Y-41790D01*
X67698Y-41723D01*
X67822Y-41599D01*
X67889Y-41437D01*
X67890Y-41262D01*
X67890Y-42262D01*
X67823Y-42101D01*
X67699Y-41977D01*
X67537Y-41910D01*
X67362Y-41909D01*
X67201Y-41976D01*
X67077Y-42100D01*
X67010Y-42262D01*
X67009Y-42437D01*
X67076Y-42598D01*
X67200Y-42722D01*
X67362Y-42789D01*
X67537Y-42790D01*
X67698Y-42723D01*
X67822Y-42599D01*
X67889Y-42437D01*
X67890Y-42262D01*
X67890Y-43262D01*
X67823Y-43101D01*
X67699Y-42977D01*
X67537Y-42910D01*
X67362Y-42909D01*
X67201Y-42976D01*
X67077Y-43100D01*
X67010Y-43262D01*
X67009Y-43437D01*
X67076Y-43598D01*
X67200Y-43722D01*
X67362Y-43789D01*
X67537Y-43790D01*
X67698Y-43723D01*
X67822Y-43599D01*
X67889Y-43437D01*
X67890Y-43262D01*
X67890Y-46690D01*
X66750Y-46690D01*
X66750Y-41420D01*
X66708Y-41319D01*
X66630Y-41242D01*
X66529Y-41200D01*
X66468Y-41199D01*
X65884Y-40615D01*
X65822Y-40574D01*
X65750Y-40560D01*
X63250Y-40560D01*
X63177Y-40574D01*
X63115Y-40615D01*
X62215Y-41515D01*
X62174Y-41577D01*
X62160Y-41650D01*
X62160Y-43471D01*
X59956Y-45675D01*
X59943Y-45674D01*
X60409Y-45209D01*
X60409Y-45209D01*
X60409Y-45209D01*
X60450Y-45147D01*
X60465Y-45075D01*
X60465Y-44650D01*
X60464Y-44649D01*
X60465Y-44649D01*
X60462Y-44637D01*
X60450Y-44577D01*
X60409Y-44515D01*
X60409Y-44515D01*
X59799Y-43906D01*
X59800Y-43845D01*
X59758Y-43744D01*
X59680Y-43667D01*
X59579Y-43625D01*
X59470Y-43624D01*
X59369Y-43666D01*
X59292Y-43744D01*
X59250Y-43845D01*
X59249Y-43934D01*
X59197Y-43899D01*
X59125Y-43885D01*
X54950Y-43885D01*
X54877Y-43899D01*
X54815Y-43940D01*
X54815Y-43940D01*
X54591Y-44164D01*
X54583Y-44144D01*
X54540Y-44101D01*
X54540Y-40650D01*
X54525Y-40577D01*
X54484Y-40515D01*
X54484Y-40515D01*
X54024Y-40056D01*
X54025Y-39995D01*
X53983Y-39894D01*
X53905Y-39817D01*
X53804Y-39775D01*
X53695Y-39774D01*
X53594Y-39816D01*
X53517Y-39894D01*
X53475Y-39995D01*
X53474Y-40104D01*
X53516Y-40205D01*
X53594Y-40282D01*
X53695Y-40324D01*
X53756Y-40325D01*
X54160Y-40728D01*
X54160Y-44101D01*
X54117Y-44144D01*
X54075Y-44245D01*
X54074Y-44354D01*
X54116Y-44455D01*
X54194Y-44532D01*
X54198Y-44535D01*
X54078Y-44535D01*
X50724Y-41181D01*
X50725Y-41120D01*
X50683Y-41019D01*
X50605Y-40942D01*
X50504Y-40900D01*
X50395Y-40899D01*
X50294Y-40941D01*
X50217Y-41019D01*
X50175Y-41120D01*
X50174Y-41229D01*
X50216Y-41330D01*
X50294Y-41407D01*
X50395Y-41449D01*
X50456Y-41450D01*
X50481Y-41475D01*
X50395Y-41474D01*
X50294Y-41516D01*
X50217Y-41594D01*
X50175Y-41695D01*
X50174Y-41804D01*
X50216Y-41905D01*
X50294Y-41982D01*
X50395Y-42024D01*
X50456Y-42025D01*
X53565Y-45134D01*
X53565Y-45134D01*
X53627Y-45175D01*
X53627Y-45175D01*
X53685Y-45187D01*
X53699Y-45190D01*
X53699Y-45189D01*
X53700Y-45190D01*
X54325Y-45190D01*
X54397Y-45175D01*
X54459Y-45134D01*
X54779Y-44814D01*
X54816Y-44905D01*
X54870Y-44958D01*
X54870Y-45750D01*
X54870Y-45791D01*
X54850Y-45811D01*
X54850Y-45395D01*
X54808Y-45294D01*
X54730Y-45217D01*
X54629Y-45175D01*
X54520Y-45174D01*
X54419Y-45216D01*
X54366Y-45270D01*
X52224Y-45270D01*
X49924Y-42970D01*
X49925Y-42895D01*
X49883Y-42794D01*
X49805Y-42717D01*
X49704Y-42675D01*
X49595Y-42674D01*
X49494Y-42716D01*
X49417Y-42794D01*
X49375Y-42895D01*
X49374Y-43004D01*
X49416Y-43105D01*
X49494Y-43182D01*
X49595Y-43224D01*
X49670Y-43225D01*
X52022Y-45577D01*
X52081Y-45616D01*
X52150Y-45630D01*
X54366Y-45630D01*
X54419Y-45682D01*
X54520Y-45724D01*
X54629Y-45725D01*
X54730Y-45683D01*
X54807Y-45605D01*
X54849Y-45504D01*
X54850Y-45395D01*
X54850Y-45811D01*
X54817Y-45844D01*
X54775Y-45945D01*
X54774Y-46054D01*
X54816Y-46155D01*
X54894Y-46232D01*
X54995Y-46274D01*
X55104Y-46275D01*
X55205Y-46233D01*
X55282Y-46155D01*
X55324Y-46054D01*
X55325Y-45945D01*
X55283Y-45844D01*
X55230Y-45791D01*
X55230Y-45750D01*
X55230Y-44958D01*
X55282Y-44905D01*
X55324Y-44804D01*
X55325Y-44695D01*
X55283Y-44594D01*
X55228Y-44540D01*
X58751Y-44540D01*
X58794Y-44582D01*
X58895Y-44624D01*
X59004Y-44625D01*
X59105Y-44583D01*
X59182Y-44505D01*
X59213Y-44432D01*
X59325Y-44543D01*
X59324Y-44604D01*
X59366Y-44705D01*
X59444Y-44782D01*
X59545Y-44824D01*
X59654Y-44825D01*
X59755Y-44783D01*
X59832Y-44705D01*
X59874Y-44604D01*
X59875Y-44518D01*
X60085Y-44728D01*
X60085Y-44996D01*
X59721Y-45360D01*
X56250Y-45360D01*
X56249Y-45360D01*
X56235Y-45362D01*
X56177Y-45374D01*
X56115Y-45415D01*
X56115Y-45415D01*
X55856Y-45675D01*
X55795Y-45674D01*
X55694Y-45716D01*
X55617Y-45794D01*
X55575Y-45895D01*
X55574Y-46004D01*
X55616Y-46105D01*
X55694Y-46182D01*
X55795Y-46224D01*
X55904Y-46225D01*
X56005Y-46183D01*
X56082Y-46105D01*
X56124Y-46004D01*
X56125Y-45943D01*
X56328Y-45740D01*
X59771Y-45740D01*
X59717Y-45794D01*
X59675Y-45895D01*
X59674Y-46004D01*
X59716Y-46105D01*
X59794Y-46182D01*
X59895Y-46224D01*
X60004Y-46225D01*
X60105Y-46183D01*
X60182Y-46105D01*
X60224Y-46004D01*
X60225Y-45943D01*
X62484Y-43684D01*
X62484Y-43684D01*
X62484Y-43684D01*
X62525Y-43622D01*
X62525Y-43622D01*
X62537Y-43562D01*
X62540Y-43550D01*
X62539Y-43550D01*
X62540Y-43550D01*
X62540Y-41728D01*
X63328Y-40940D01*
X65671Y-40940D01*
X66200Y-41468D01*
X66199Y-41529D01*
X66241Y-41630D01*
X66319Y-41707D01*
X66420Y-41749D01*
X66529Y-41750D01*
X66630Y-41708D01*
X66707Y-41630D01*
X66749Y-41529D01*
X66750Y-41420D01*
X66750Y-46690D01*
X49090Y-46690D01*
X49090Y-43262D01*
X49090Y-42262D01*
X49090Y-41262D01*
X49090Y-40262D01*
X49090Y-39262D01*
X49090Y-39262D01*
X49090Y-38622D01*
X49090Y-38022D01*
X49068Y-37970D01*
X49029Y-37931D01*
X48977Y-37910D01*
X48922Y-37909D01*
X48322Y-37909D01*
X48270Y-37931D01*
X48231Y-37970D01*
X48210Y-38022D01*
X48209Y-38077D01*
X48209Y-38677D01*
X48231Y-38729D01*
X48270Y-38768D01*
X48322Y-38789D01*
X48377Y-38790D01*
X48977Y-38790D01*
X49029Y-38768D01*
X49068Y-38729D01*
X49089Y-38677D01*
X49090Y-38622D01*
X49090Y-39262D01*
X49023Y-39101D01*
X48899Y-38977D01*
X48737Y-38910D01*
X48562Y-38909D01*
X48401Y-38976D01*
X48277Y-39100D01*
X48210Y-39262D01*
X48209Y-39437D01*
X48276Y-39598D01*
X48400Y-39722D01*
X48562Y-39789D01*
X48737Y-39790D01*
X48898Y-39723D01*
X49022Y-39599D01*
X49089Y-39437D01*
X49090Y-39262D01*
X49090Y-40262D01*
X49023Y-40101D01*
X48899Y-39977D01*
X48737Y-39910D01*
X48562Y-39909D01*
X48401Y-39976D01*
X48277Y-40100D01*
X48210Y-40262D01*
X48209Y-40437D01*
X48276Y-40598D01*
X48400Y-40722D01*
X48562Y-40789D01*
X48737Y-40790D01*
X48898Y-40723D01*
X49022Y-40599D01*
X49089Y-40437D01*
X49090Y-40262D01*
X49090Y-41262D01*
X49023Y-41101D01*
X48899Y-40977D01*
X48737Y-40910D01*
X48562Y-40909D01*
X48401Y-40976D01*
X48277Y-41100D01*
X48210Y-41262D01*
X48209Y-41437D01*
X48276Y-41598D01*
X48400Y-41722D01*
X48562Y-41789D01*
X48737Y-41790D01*
X48898Y-41723D01*
X49022Y-41599D01*
X49089Y-41437D01*
X49090Y-41262D01*
X49090Y-42262D01*
X49023Y-42101D01*
X48899Y-41977D01*
X48737Y-41910D01*
X48562Y-41909D01*
X48401Y-41976D01*
X48277Y-42100D01*
X48210Y-42262D01*
X48209Y-42437D01*
X48276Y-42598D01*
X48400Y-42722D01*
X48562Y-42789D01*
X48737Y-42790D01*
X48898Y-42723D01*
X49022Y-42599D01*
X49089Y-42437D01*
X49090Y-42262D01*
X49090Y-43262D01*
X49023Y-43101D01*
X48899Y-42977D01*
X48737Y-42910D01*
X48562Y-42909D01*
X48401Y-42976D01*
X48277Y-43100D01*
X48210Y-43262D01*
X48209Y-43437D01*
X48276Y-43598D01*
X48400Y-43722D01*
X48562Y-43789D01*
X48737Y-43790D01*
X48898Y-43723D01*
X49022Y-43599D01*
X49089Y-43437D01*
X49090Y-43262D01*
X49090Y-46690D01*
X48209Y-46690D01*
X48209Y-37009D01*
X67890Y-37009D01*
X67890Y-46690D01*
M02*
